<?xml version="1.0" standalone="no"?>
<!DOCTYPE svg PUBLIC "-//W3C//DTD SVG 20010904//EN"
 "http://www.w3.org/TR/2001/REC-SVG-20010904/DTD/svg10.dtd">
<svg version="1.0" xmlns="http://www.w3.org/2000/svg"
 width="1312.000000pt" height="1217.000000pt" viewBox="0 0 1312.000000 1217.000000"
 preserveAspectRatio="xMidYMid meet">

<g transform="translate(0.000000,1217.000000) scale(0.100000,-0.100000)"
fill="#000000" stroke="none">
<path d="M6625 11334 c-71 -37 -245 -126 -385 -198 -140 -73 -286 -147 -325
-165 -38 -18 -80 -42 -92 -53 -26 -25 -30 -70 -8 -88 17 -14 151 -84 396 -206
155 -77 209 -115 209 -148 0 -30 23 -86 55 -136 19 -30 35 -62 35 -72 0 -9
-19 -39 -43 -66 -53 -59 -107 -155 -137 -242 -34 -97 -56 -136 -92 -161 -33
-23 -479 -358 -522 -392 -15 -12 -51 -22 -97 -27 -41 -5 -96 -14 -124 -20 -27
-5 -102 -17 -165 -24 -210 -26 -344 -47 -394 -62 -62 -18 -84 -18 -121 2 -377
204 -435 231 -580 272 -124 36 -214 46 -400 45 -176 -1 -182 -2 -295 -36 -176
-54 -320 -94 -375 -105 -27 -6 -71 -16 -96 -23 -40 -10 -66 -9 -175 10 -159
26 -335 29 -358 5 -9 -8 -16 -19 -16 -22 0 -4 18 -39 41 -77 71 -121 54 -146
-121 -172 -45 -7 -54 -11 -52 -26 11 -67 180 -232 339 -333 32 -20 59 -38 61
-39 2 -2 11 -43 22 -91 26 -125 83 -295 124 -368 19 -33 56 -88 83 -122 56
-69 57 -71 112 -257 23 -77 59 -181 81 -232 21 -52 42 -116 45 -142 21 -150
88 -270 188 -336 67 -45 84 -51 177 -72 62 -14 86 -15 135 -6 131 24 251 115
279 212 21 68 20 165 0 220 -13 36 -17 93 -18 307 -1 145 1 265 5 268 8 5 70
-58 97 -98 8 -13 44 -53 79 -90 55 -58 66 -75 65 -98 0 -3 -12 -69 -26 -146
-69 -376 3 -860 191 -1278 34 -76 35 -83 30 -162 -3 -46 -14 -101 -24 -124
-23 -52 -156 -233 -313 -428 -160 -198 -218 -280 -225 -317 -4 -17 1 -49 9
-74 9 -24 16 -53 16 -65 0 -12 19 -47 42 -79 32 -44 57 -64 112 -93 39 -20 96
-60 126 -88 31 -28 98 -88 150 -132 52 -45 150 -131 218 -190 68 -60 168 -147
222 -194 53 -47 125 -109 158 -139 59 -54 102 -75 247 -122 33 -11 71 -28 85
-38 54 -39 130 -71 170 -71 26 0 70 14 127 41 49 23 99 47 113 53 21 10 26 20
28 59 3 38 -6 68 -48 164 -108 246 -148 340 -165 385 -15 41 -22 48 -50 54
-19 3 -48 3 -65 -1 -60 -13 -185 -76 -221 -112 -22 -20 -44 -33 -55 -31 -10 2
-57 51 -104 110 -294 369 -407 512 -418 528 -11 16 -11 23 0 43 22 42 166 206
295 337 68 69 152 164 189 212 71 95 91 111 132 106 31 -4 67 -60 78 -123 9
-56 109 -245 165 -313 92 -110 118 -156 128 -224 10 -64 35 -191 71 -353 25
-116 54 -254 80 -385 27 -133 55 -264 76 -360 20 -90 20 -136 -1 -249 -20
-103 -42 -157 -90 -215 -39 -48 -66 -62 -135 -70 -38 -4 -53 -13 -97 -59 -32
-34 -55 -68 -62 -93 -13 -50 0 -269 18 -287 9 -9 97 -12 361 -12 191 0 351 3
354 6 4 3 9 60 13 125 5 103 10 126 34 176 40 80 47 140 59 523 6 187 13 349
15 360 3 11 10 256 15 545 5 289 14 568 20 620 6 52 13 137 17 188 3 51 10 95
15 98 5 3 30 -1 56 -9 47 -15 128 -33 277 -62 188 -37 528 -41 685 -10 107 22
195 28 218 16 16 -8 22 -28 32 -98 17 -127 56 -253 113 -373 62 -130 67 -171
69 -545 2 -307 -1 -329 -75 -487 -24 -51 -50 -108 -57 -125 -14 -37 -41 -56
-186 -127 -80 -40 -123 -69 -192 -134 -114 -103 -126 -131 -120 -269 3 -85 6
-101 26 -121 12 -12 26 -22 31 -22 5 0 11 -7 15 -15 5 -13 48 -15 313 -14 169
1 319 4 333 8 25 7 25 8 30 151 3 80 9 151 13 158 5 7 25 21 46 32 47 24 85
68 101 116 7 21 21 52 32 69 20 35 41 131 58 271 6 49 17 112 25 139 7 28 16
79 20 115 4 36 13 92 21 126 7 33 16 101 19 150 4 49 16 145 27 214 19 115 25
131 68 201 93 147 160 312 160 393 0 42 17 81 26 60 3 -6 31 -54 64 -106 61
-97 167 -224 220 -263 62 -46 71 -68 208 -485 82 -251 99 -343 107 -580 l6
-175 -28 -60 c-60 -128 -142 -252 -199 -302 -31 -26 -78 -69 -105 -94 l-49
-46 0 -130 c0 -96 4 -134 14 -149 14 -18 31 -19 292 -23 314 -4 384 4 384 45
0 12 -6 24 -12 27 -9 3 -6 11 10 24 19 18 22 30 22 99 0 66 4 86 25 119 13 22
31 54 41 70 27 49 56 75 96 85 65 18 72 55 45 255 -9 66 -23 176 -32 245 -8
69 -19 150 -25 180 -5 30 -14 98 -20 150 -6 52 -20 154 -30 225 -11 72 -22
162 -25 200 -4 39 -11 93 -16 122 -6 29 -14 96 -20 150 -5 54 -15 139 -23 188
-19 117 -20 195 -3 195 7 0 29 -47 51 -112 21 -62 46 -135 57 -162 28 -75 109
-204 161 -257 38 -39 57 -49 103 -59 71 -15 112 -2 159 50 65 72 92 149 131
375 23 129 25 165 25 470 0 182 -5 362 -11 400 -5 39 -16 144 -24 235 -20 238
-45 438 -60 490 -8 25 -17 70 -20 100 -18 148 -166 571 -251 717 -47 81 -116
164 -159 189 -56 32 -147 33 -225 1 -46 -19 -59 -30 -81 -70 -46 -86 -50 -87
-116 -39 -32 23 -87 63 -123 89 -36 26 -94 59 -130 73 -36 15 -87 38 -115 52
-70 36 -236 80 -325 87 l-75 6 3 65 3 66 -56 44 c-32 25 -94 74 -139 109 -44
35 -137 118 -206 185 -122 118 -208 187 -260 209 -48 21 -81 49 -100 88 -24
46 -49 180 -50 259 0 30 -7 98 -14 150 -39 269 -141 479 -320 662 -47 48 -86
89 -86 92 0 3 14 40 32 83 30 74 32 87 39 248 l6 170 77 230 c42 127 76 247
76 268 0 58 -14 61 -340 68 -157 4 -301 10 -320 13 -30 5 -54 -3 -165 -60z
m-248 -2274 c19 -54 29 -46 -182 -151 -88 -44 -169 -89 -179 -99 -28 -27 -24
-68 12 -121 19 -27 32 -60 32 -77 0 -37 -57 -152 -76 -152 -7 0 -21 11 -30 25
-9 14 -39 42 -67 62 -29 21 -76 59 -106 86 -30 26 -100 77 -155 114 -56 36
-103 69 -106 73 -3 4 -33 22 -67 39 -35 17 -63 36 -63 41 0 6 31 10 71 10 86
0 321 17 485 34 110 12 127 17 180 49 82 49 217 117 228 114 4 -2 15 -23 23
-47z"/>
<path d="M7233 2253 c-18 -3 -23 -12 -25 -36 -2 -47 2 -81 11 -90 12 -12 132
-10 144 2 6 6 12 35 15 64 l4 54 -38 6 c-41 7 -75 7 -111 0z"/>
<path d="M5467 2243 c-4 -3 -7 -158 -7 -343 0 -248 3 -339 12 -348 14 -14 116
-16 138 -2 12 7 14 59 12 342 -1 183 -2 339 -2 346 0 8 -21 12 -73 12 -41 0
-77 -3 -80 -7z"/>
<path d="M5796 2232 c-10 -32 -4 -666 7 -679 6 -8 33 -13 66 -13 97 0 92 -24
89 365 l-3 340 -77 3 c-68 2 -77 1 -82 -16z"/>
<path d="M602 2197 c-16 -19 -12 -631 4 -647 8 -8 69 -11 195 -8 171 3 187 5
229 27 101 54 130 96 130 193 0 59 -29 107 -79 127 -45 19 -46 39 -6 77 30 28
35 39 35 79 0 58 -18 94 -67 131 l-38 29 -196 3 c-159 3 -198 0 -207 -11z
m326 -129 c17 -17 15 -74 -4 -92 -11 -12 -36 -16 -91 -16 l-76 0 7 52 c4 29
13 56 19 60 19 12 132 9 145 -4z m37 -268 c16 -31 20 -78 7 -96 -15 -24 -54
-34 -125 -34 -84 0 -87 2 -87 76 0 78 8 84 105 84 83 0 85 0 100 -30z"/>
<path d="M1295 2198 c-8 -21 0 -632 9 -646 9 -14 124 -16 146 -2 12 8 14 30
11 125 l-3 115 36 0 c42 0 50 -8 126 -115 95 -136 94 -135 200 -135 70 0 92 3
96 15 4 9 -24 47 -73 102 -85 95 -123 145 -123 161 0 6 24 36 54 66 59 60 67
84 55 179 -6 55 -40 96 -104 127 -37 18 -62 20 -233 20 -145 0 -194 -3 -197
-12z m345 -138 c29 -29 27 -95 -3 -115 -28 -18 -136 -30 -156 -17 -18 13 -26
103 -12 131 10 18 20 21 81 21 57 0 74 -4 90 -20z"/>
<path d="M2000 1886 c0 -266 2 -326 14 -335 9 -7 41 -11 83 -9 l68 3 5 140 5
140 125 5 c69 3 131 9 138 13 7 5 12 29 12 57 0 60 2 59 -160 63 l-115 2 0 55
0 55 145 6 c80 4 146 7 148 8 8 4 0 99 -10 109 -9 9 -75 12 -235 12 l-223 0 0
-324z"/>
<path d="M2925 2198 c-3 -7 -4 -157 -3 -333 l3 -320 50 -3 c27 -2 65 -1 82 3
l33 6 0 110 c0 108 0 110 26 121 25 12 29 10 60 -27 19 -22 57 -74 86 -115 28
-41 58 -81 66 -87 19 -16 188 -18 197 -3 4 6 -8 27 -25 48 -18 20 -73 89 -123
152 -79 100 -91 120 -91 153 -1 25 6 43 16 51 9 6 33 32 53 56 20 25 66 76
103 113 79 80 76 87 -41 87 -77 0 -78 0 -113 -37 -19 -21 -51 -62 -71 -92 -42
-63 -115 -141 -131 -141 -8 0 -12 41 -14 133 l-3 132 -78 3 c-56 2 -79 -1 -82
-10z"/>
<path d="M10213 2186 c-46 -21 -53 -29 -63 -66 -25 -91 4 -119 74 -72 41 28
55 32 114 32 91 0 112 -15 112 -79 0 -86 -85 -193 -229 -286 -81 -53 -87 -60
-95 -107 -11 -71 -21 -68 254 -68 137 0 255 3 264 6 12 5 16 20 16 59 0 39 -4
54 -16 59 -9 3 -71 6 -138 6 -68 0 -125 3 -129 6 -11 11 5 34 23 34 10 0 53
33 96 73 95 88 124 144 124 235 0 55 -4 68 -30 101 -51 63 -108 86 -225 88
-88 2 -106 0 -152 -21z"/>
<path d="M10924 2196 c-45 -20 -103 -74 -125 -119 -29 -57 -44 -211 -29 -307
15 -97 45 -149 112 -191 49 -31 58 -34 152 -37 97 -4 103 -3 143 25 87 59 100
76 120 160 24 102 23 240 -1 311 -39 115 -126 172 -261 172 -44 -1 -94 -7
-111 -14z m168 -127 c51 -27 73 -190 43 -308 -17 -62 -22 -72 -48 -81 -111
-38 -162 23 -160 195 2 147 32 205 106 205 21 0 47 -5 59 -11z"/>
<path d="M11594 2196 c-45 -20 -102 -74 -124 -116 -40 -78 -50 -215 -24 -329
19 -85 45 -126 103 -165 52 -35 95 -45 182 -46 61 0 72 3 127 40 81 54 107
108 123 245 11 93 10 106 -10 181 -26 93 -67 146 -143 183 -52 25 -183 29
-234 7z m165 -126 c56 -29 76 -216 36 -330 -19 -56 -38 -70 -90 -70 -79 0
-110 62 -109 215 1 102 16 158 47 180 24 17 89 20 116 5z"/>
<path d="M12235 2188 c-84 -43 -137 -120 -148 -214 -6 -57 12 -107 58 -162 37
-44 73 -61 145 -69 53 -5 65 -3 90 16 39 29 90 39 90 18 0 -19 -73 -85 -104
-93 -22 -5 -133 -1 -196 8 -24 3 -25 0 -28 -54 -5 -92 2 -98 114 -98 138 0
220 30 292 106 29 31 57 67 62 80 16 42 23 265 10 314 -17 62 -64 118 -124
146 -69 32 -201 33 -261 2z m180 -114 c23 -9 45 -57 55 -122 12 -69 8 -72 -86
-72 -75 0 -94 10 -123 67 -13 25 5 81 36 115 16 18 83 25 118 12z"/>
<path d="M8092 2161 c-10 -6 -12 -21 -7 -53 7 -44 6 -46 -29 -66 -33 -20 -36
-25 -36 -67 0 -40 3 -47 27 -56 15 -6 31 -15 34 -21 4 -6 7 -65 8 -130 0 -102
3 -124 21 -153 34 -55 64 -69 165 -73 50 -1 95 1 102 5 6 4 13 30 14 56 4 57
-6 67 -71 67 -26 0 -51 5 -58 12 -8 8 -12 49 -12 119 l0 108 43 5 c23 3 56 7
72 8 27 3 30 7 33 40 4 50 -12 78 -46 78 -15 0 -44 3 -64 6 -38 7 -38 7 -38
53 0 26 -5 52 -12 59 -14 14 -126 16 -146 3z"/>
<path d="M3764 2039 c-109 -10 -144 -38 -144 -116 0 -39 2 -43 26 -43 14 0 34
5 46 11 30 16 219 32 232 19 19 -19 -10 -32 -89 -41 -120 -13 -178 -33 -214
-74 -27 -31 -31 -43 -31 -95 0 -66 21 -101 86 -141 32 -19 43 -21 117 -14 45
4 102 6 127 5 25 -1 72 -2 105 -3 l60 -2 0 195 c0 172 -2 199 -18 224 -37 57
-162 87 -303 75z m163 -290 c-8 -59 -30 -79 -89 -79 -60 0 -88 14 -88 43 1 48
49 74 139 76 l44 1 -6 -41z"/>
<path d="M4220 2041 c-16 -5 -24 -14 -24 -27 1 -10 27 -80 58 -154 30 -74 56
-140 56 -146 0 -21 61 -158 73 -166 21 -13 142 -9 162 6 10 7 24 33 30 57 17
60 44 136 66 184 46 99 72 173 73 205 1 33 -1 35 -34 40 -19 3 -53 3 -74 0
l-39 -5 -38 -120 c-21 -66 -38 -130 -38 -142 -1 -12 -6 -25 -13 -29 -15 -10
-58 41 -58 69 0 12 -10 42 -21 67 -11 24 -23 63 -26 87 -3 23 -13 49 -22 57
-19 17 -97 28 -131 17z"/>
<path d="M6769 2040 c-22 -5 -22 -6 -22 -242 0 -129 4 -241 7 -247 9 -14 133
-14 142 0 3 6 8 85 9 174 2 90 6 169 10 174 3 6 36 11 73 11 37 0 83 5 102 10
l36 10 -6 52 -5 53 -47 3 c-37 2 -58 -3 -94 -24 l-46 -27 -21 26 c-17 19 -33
26 -69 29 -26 2 -57 1 -69 -2z"/>
<path d="M7223 2044 c-18 -8 -19 -474 -1 -492 18 -18 135 -16 145 2 4 8 6 122
3 253 l-5 238 -65 2 c-36 1 -71 -1 -77 -3z"/>
<path d="M4883 2026 c-23 -11 -34 -24 -42 -53 -24 -87 -8 -107 68 -79 51 18
216 23 226 6 9 -15 -39 -30 -93 -30 -56 0 -168 -34 -195 -58 -32 -28 -47 -68
-47 -122 0 -46 4 -55 43 -96 39 -42 47 -46 104 -51 34 -3 82 -1 108 6 35 9 65
9 130 -1 123 -17 118 -26 114 202 -5 214 -9 227 -87 262 -61 28 -278 37 -329
14z m251 -253 c9 -30 -9 -77 -35 -90 -36 -19 -125 -17 -133 3 -11 29 -6 61 12
76 21 20 44 25 104 27 36 1 48 -3 52 -16z"/>
<path d="M6245 2019 c-63 -33 -134 -108 -146 -154 -6 -22 -9 -68 -7 -102 3
-49 10 -72 34 -105 75 -107 305 -153 439 -87 50 24 50 24 53 77 4 60 -2 63
-82 36 -97 -33 -293 -3 -284 44 3 15 22 17 181 18 197 1 197 0 197 64 0 82
-35 144 -114 201 -36 27 -45 29 -135 29 -78 0 -104 -4 -136 -21z m196 -130
c35 -35 20 -44 -77 -47 -109 -3 -131 8 -91 43 38 34 136 36 168 4z"/>
<path d="M7625 2023 c-16 -8 -49 -31 -72 -50 -40 -32 -43 -38 -43 -81 0 -55
27 -105 67 -125 15 -8 72 -24 125 -36 102 -23 123 -36 94 -56 -23 -17 -179 -9
-228 12 -53 22 -68 13 -68 -41 0 -38 4 -48 29 -66 38 -26 129 -43 206 -38 86
6 194 60 218 109 17 35 17 39 0 90 -15 44 -25 58 -58 76 -22 13 -53 23 -70 23
-16 0 -56 8 -88 18 -112 35 -97 58 36 53 49 -1 104 -9 122 -17 19 -8 39 -14
45 -14 14 0 13 93 -2 112 -35 45 -247 66 -313 31z"/>
<path d="M8582 2001 c-111 -72 -148 -182 -102 -304 26 -69 61 -99 157 -133
113 -39 249 -32 324 19 28 19 35 30 37 65 4 54 -11 60 -88 37 -109 -33 -278
-6 -288 46 -2 13 21 15 178 15 204 -1 200 -3 200 75 0 62 -40 140 -88 171 -64
41 -90 48 -181 48 -85 0 -90 -1 -149 -39z m235 -113 c9 -9 13 -24 10 -32 -9
-23 -192 -24 -201 -1 -4 10 5 22 27 36 39 25 138 23 164 -3z"/>
<path d="M9127 2033 c-4 -3 -7 -113 -7 -244 0 -267 -6 -249 81 -249 90 0 89
-3 89 185 l0 165 25 16 c30 20 109 15 131 -8 22 -22 37 -141 32 -245 -3 -58
-1 -96 5 -102 16 -16 122 -14 135 2 7 8 10 77 8 199 -2 186 -2 186 -30 222
-37 49 -74 66 -144 66 -47 0 -67 -5 -96 -25 -20 -14 -39 -25 -41 -25 -2 0 -16
11 -31 25 -23 21 -37 25 -89 25 -34 0 -65 -3 -68 -7z"/>
</g>
</svg>
